<?xml version="1.0" standalone="no"?>
<!DOCTYPE svg PUBLIC "-//W3C//DTD SVG 20010904//EN"
 "http://www.w3.org/TR/2001/REC-SVG-20010904/DTD/svg10.dtd">
<svg version="1.0" xmlns="http://www.w3.org/2000/svg"
 width="1952.000000pt" height="1952.000000pt" viewBox="0 0 1952.000000 1952.000000"
 preserveAspectRatio="xMidYMid meet">
<metadata>
Created by potrace 1.14, written by Peter Selinger 2001-2017
</metadata>
<g transform="translate(0.000000,1952.000000) scale(0.100000,-0.100000)"
fill="#000000" stroke="none">
<path d="M0 9755 l0 -3675 933 0 932 0 0 1260 c0 693 2 1260 5 1261 3 0 336 2
740 4 404 1 762 5 795 9 33 3 83 9 110 12 85 9 128 15 185 24 30 5 72 12 94
15 21 3 41 7 45 9 3 3 25 7 47 10 23 4 56 11 75 17 19 6 45 12 59 15 14 3 28
8 31 12 6 7 18 44 204 617 139 428 231 713 252 775 8 25 16 50 17 55 2 6 6 17
9 25 3 8 26 78 50 155 66 204 254 786 287 885 15 47 76 234 135 415 93 289
139 429 217 669 l19 59 -44 66 c-258 388 -662 686 -1134 837 -97 30 -302 80
-368 90 -27 3 -59 8 -70 10 -11 2 -56 8 -100 14 -44 6 -98 13 -120 17 -22 3
-797 8 -1722 10 l-1683 4 0 -3676z m2774 2241 c71 -6 74 -7 196 -26 192 -32
373 -115 485 -225 191 -186 275 -413 272 -735 -2 -304 -92 -553 -260 -720
-116 -116 -325 -207 -537 -234 -25 -3 -56 -9 -70 -13 -14 -3 -243 -8 -510 -10
l-485 -5 0 984 c-1 541 3 985 6 988 11 7 820 4 903 -4z"/>
<path d="M8602 13298 c-51 -157 -293 -902 -327 -1003 -13 -38 -71 -218 -130
-400 -59 -181 -120 -368 -135 -415 -38 -116 -154 -469 -306 -935 -70 -214
-129 -396 -130 -403 -1 -7 -14 -45 -27 -85 -14 -40 -57 -169 -95 -287 -198
-608 -324 -999 -334 -1030 -6 -19 -14 -39 -18 -43 -4 -4 -80 137 -170 315 -89
178 -263 521 -385 763 -122 242 -293 582 -380 755 l-159 315 -69 -210 c-37
-115 -70 -217 -72 -225 -2 -8 -21 -69 -43 -135 -22 -66 -86 -262 -142 -435
-56 -173 -115 -353 -130 -400 -52 -156 -248 -764 -275 -850 -14 -47 -30 -94
-35 -105 -4 -11 -41 -121 -80 -245 -40 -124 -88 -273 -107 -332 l-35 -106 93
-159 c50 -87 100 -171 110 -188 10 -16 22 -37 26 -45 4 -8 43 -75 86 -150 44
-74 90 -153 103 -175 12 -22 148 -256 302 -520 l280 -480 969 -3 968 -2 84
257 c46 142 99 303 118 358 19 55 36 107 38 115 3 14 54 169 327 1000 211 641
242 736 398 1210 83 256 177 539 207 630 30 91 56 170 57 175 2 6 6 17 9 25 3
8 38 113 76 233 39 120 75 225 79 233 6 10 22 -29 49 -118 39 -127 104 -333
284 -905 45 -142 89 -285 99 -318 10 -33 55 -177 100 -320 45 -143 104 -332
132 -420 27 -88 62 -200 78 -250 16 -49 51 -164 80 -255 95 -306 148 -474 230
-735 45 -143 103 -330 130 -415 27 -85 69 -220 95 -300 50 -157 53 -169 54
-187 1 -10 203 -13 974 -13 l972 0 109 273 c60 149 116 288 125 307 8 19 16
40 17 45 1 6 26 66 54 135 62 151 403 995 472 1170 27 69 56 139 63 155 7 17
101 250 209 518 108 268 216 536 240 595 24 59 94 233 155 387 62 154 116 289
121 300 14 31 43 102 245 605 103 256 238 591 300 745 62 154 170 422 240 595
70 173 179 443 242 600 63 157 162 402 219 545 58 143 109 269 114 280 5 11
16 37 24 58 l15 37 -983 0 -984 0 -13 -32 c-7 -18 -23 -55 -35 -83 -12 -27
-41 -95 -64 -150 -23 -55 -48 -115 -56 -132 -8 -18 -20 -48 -28 -65 -8 -18
-54 -125 -102 -238 -121 -287 -293 -689 -309 -725 -8 -16 -53 -122 -100 -235
-48 -113 -94 -221 -102 -240 -9 -19 -21 -48 -28 -65 -7 -16 -52 -122 -100
-235 -48 -113 -95 -223 -105 -245 -10 -22 -35 -80 -55 -130 -21 -49 -46 -108
-55 -130 -10 -22 -46 -105 -80 -185 -34 -80 -114 -266 -177 -415 -64 -148
-128 -299 -143 -335 -46 -112 -231 -543 -251 -589 -11 -24 -29 -64 -39 -90
-10 -25 -29 -71 -43 -101 -13 -30 -48 -111 -77 -180 -49 -119 -69 -156 -71
-135 0 6 -2 17 -4 25 -4 19 -108 357 -147 480 -16 52 -32 102 -33 110 -4 16
-16 55 -100 330 -31 102 -67 221 -80 265 -13 44 -76 251 -140 460 -64 209
-118 387 -120 395 -2 8 -29 98 -60 200 -31 102 -58 190 -59 195 -2 6 -11 37
-21 70 -10 33 -20 65 -21 70 -2 6 -31 100 -64 210 -34 110 -75 245 -91 300
-49 165 -108 358 -120 390 -5 17 -19 59 -29 95 -27 96 -42 146 -105 350 -31
102 -70 228 -85 280 -16 52 -57 188 -91 303 l-63 207 -756 0 -756 0 -42 -132z"/>
<path d="M16732 13379 c-11 -24 -23 -55 -27 -69 -4 -14 -16 -43 -25 -65 -23
-52 -169 -418 -187 -470 -7 -22 -18 -49 -23 -60 -5 -11 -53 -130 -105 -265
-53 -135 -100 -254 -105 -265 -5 -11 -44 -108 -86 -215 -42 -107 -140 -357
-219 -555 -190 -480 -172 -422 -147 -492 66 -183 169 -473 204 -573 22 -63 47
-129 54 -147 8 -17 14 -35 14 -39 0 -6 28 -88 68 -194 3 -8 6 -17 7 -20 1 -3
4 -12 8 -20 3 -8 20 -55 37 -105 17 -49 35 -98 40 -107 6 -10 10 -27 10 -37 0
-11 4 -22 9 -25 5 -3 11 -16 14 -28 2 -13 23 -75 47 -138 23 -63 52 -144 64
-180 13 -36 49 -137 81 -225 31 -88 65 -183 75 -211 l18 -51 -810 0 c-470 0
-812 -4 -817 -9 -5 -5 -38 -83 -74 -174 -111 -285 -418 -1064 -427 -1085 -31
-70 -59 -149 -55 -154 3 -3 596 -5 1318 -6 l1312 0 62 -170 c34 -93 82 -227
107 -297 25 -71 67 -185 92 -255 25 -71 77 -216 115 -323 39 -107 76 -211 84
-230 l13 -35 1021 -3 c969 -2 1020 -1 1015 15 -3 10 -10 27 -15 38 -5 11 -63
166 -129 345 -67 179 -125 334 -130 345 -8 18 -257 676 -330 875 -16 41 -63
167 -105 280 -87 232 -80 211 -245 650 -67 179 -132 352 -145 385 -13 33 -40
105 -60 160 -20 55 -45 121 -55 146 -11 25 -35 91 -55 145 -19 54 -39 108 -45
119 -5 11 -25 64 -44 117 -20 53 -40 107 -45 120 -5 13 -26 68 -46 123 -20 55
-40 109 -45 120 -17 44 -40 103 -63 165 -117 310 -158 420 -246 655 -56 149
-114 304 -130 345 -16 41 -52 138 -81 215 -29 77 -56 149 -61 160 -4 11 -67
175 -138 365 -71 190 -209 557 -306 815 -98 259 -191 506 -207 550 -16 44 -31
82 -34 84 -2 2 -12 -16 -22 -40z"/>
</g>
</svg>
